<svg width="48" height="48" viewBox="0 0 48 48" fill="none" xmlns="http://www.w3.org/2000/svg">
<path d="M23.1938 29.556C24.0306 30.3901 25.1639 30.8584 26.3455 30.8584C27.5271 30.8584 28.6605 30.3901 29.4972 29.556L31.0731 27.9804C31.9099 27.1463 33.0433 26.678 34.2249 26.678C35.4064 26.678 36.5398 27.1463 37.3766 27.9804L40.5284 31.1317C40.9891 31.5174 41.3597 31.9995 41.614 32.544C41.8682 33.0884 42 33.682 42 34.2829C42 34.8838 41.8682 35.4774 41.614 36.0219C41.3597 36.5663 40.9891 37.0484 40.5284 37.4342C32.2753 45.6882 22.775 41.7672 14.4972 33.4906C6.21937 25.214 2.31797 15.7242 10.5733 7.47017C10.9593 7.00981 11.4416 6.63962 11.9861 6.38562C12.5306 6.13163 13.1242 6 13.725 6C14.3259 6 14.9194 6.13163 15.464 6.38562C16.0085 6.63962 16.4907 7.00981 16.8768 7.47017L20.0285 10.6214C20.8632 11.4578 21.3321 12.5911 21.3321 13.7727C21.3321 14.9543 20.8632 16.0876 20.0285 16.924L18.4526 18.4996C17.6179 19.336 17.1491 20.4693 17.1491 21.6509C17.1491 22.8324 17.6179 23.9657 18.4526 24.8021L23.1938 29.556Z" fill="#251230"/>
</svg>
